HIERARCHY
ROOT hip
{
	OFFSET 0.000000 0.000000 0.000000 
	CHANNELS 6 Xposition Yposition Zposition Xrotation Zrotation Yrotation
	JOINT abdomen
	{
		OFFSET 0.000000 3.402643 0.000000 
		CHANNELS 3 Xrotation Zrotation Yrotation
		JOINT chest
		{
			OFFSET 0.000000 8.438565 -0.680529 
			CHANNELS 3 Xrotation Zrotation Yrotation
			JOINT neck
			{
				OFFSET 0.000000 10.207942 -0.272212 
				CHANNELS 3 Xrotation Zrotation Yrotation
				JOINT head
				{
					OFFSET 0.000000 3.130431 0.000000 
					CHANNELS 3 Xrotation Zrotation Yrotation
					End Site
					{
						OFFSET 0.000000 3.130435 0.000000 
					}
				}
			}
			JOINT lCollar
			{
				OFFSET 3.470700 6.669187 -0.816635 
				CHANNELS 3 Yrotation Zrotation Xrotation
				JOINT lShldr
				{
					OFFSET 3.198488 0.000000 0.000000 
					CHANNELS 3 Zrotation Yrotation Xrotation
					JOINT lForeArm
					{
						OFFSET 10.139888 0.000000 0.000000 
						CHANNELS 3 Yrotation Zrotation Xrotation
						JOINT lHand
						{
							OFFSET 8.370511 0.000000 0.000000 
							CHANNELS 3 Zrotation Yrotation Xrotation
							End Site
							{
								OFFSET 4.083176 0.000000 0.000000 
							}
						}
					}
				}
			}
			JOINT rCollar
			{
				OFFSET -3.470700 6.669187 -0.816635 
				CHANNELS 3 Yrotation Zrotation Xrotation
				JOINT rShldr
				{
					OFFSET -3.198488 0.000000 0.000000 
					CHANNELS 3 Zrotation Yrotation Xrotation
					JOINT rForeArm
					{
						OFFSET -10.139888 0.000000 0.000000 
						CHANNELS 3 Yrotation Zrotation Xrotation
						JOINT rHand
						{
							OFFSET -8.370511 0.000000 0.000000 
							CHANNELS 3 Zrotation Yrotation Xrotation
							End Site
							{
								OFFSET -4.083176 0.000000 0.000000 
							}
						}
					}
				}
			}
		}
	}
	JOINT lThigh
	{
		OFFSET 5.308129 -1.633274 1.361059 
		CHANNELS 3 Xrotation Zrotation Yrotation
		JOINT lShin
		{
			OFFSET -2.041588 -20.007561 0.000000 
			CHANNELS 3 Xrotation Zrotation Yrotation
			JOINT lFoot
			{
				OFFSET 0.000000 -19.190928 -1.224953 
				CHANNELS 3 Xrotation Yrotation Zrotation
				End Site
				{
					OFFSET 0.000000 -2.449906 4.627600 
				}
			}
		}
	}
	JOINT rThigh
	{
		OFFSET -5.308129 -1.633274 1.361059 
		CHANNELS 3 Xrotation Zrotation Yrotation
		JOINT rShin
		{
			OFFSET 2.041588 -20.007561 0.000000 
			CHANNELS 3 Xrotation Zrotation Yrotation
			JOINT rFoot
			{
				OFFSET 0.000000 -19.190928 -1.224953 
				CHANNELS 3 Xrotation Yrotation Zrotation
				End Site
				{
					OFFSET 0.000000 -2.449906 4.627600 
				}
			}
		}
	}
}
MOTION
Frames: 18
Frame Time: 0.033333
0.000000 48.625053 0.000000 22.734093 -95.566803 -111.280571 0.000000 0.000000 0.000000 0.469017 -1.933529 -1.061068 -7.694467 0.916219 0.079808 1.228392 -1.355881 3.134418 -6.895080 -18.221741 -5.001751 -35.018497 9.053358 64.900215 -41.786556 -14.292684 3.631104 19.357700 -9.205135 22.212633 2.692438 10.807765 -4.060805 46.671318 -20.663382 32.358490 33.125546 17.724369 3.719002 -13.142064 5.824923 28.488373 9.598061 16.629236 11.042812 0.671659 -4.147830 38.211456 37.765934 -1.834912 -5.439593 9.293035 -11.432363 -11.705791 2.513735 4.261405 -51.421734 47.721298 4.711709 10.602070 
0.000000 48.625053 0.000000 23.130108 -95.551193 -111.738777 0.000000 0.000000 0.000000 0.420161 -1.933542 -1.020357 -7.577310 0.814463 0.080632 1.257485 -1.423769 3.054570 -6.807576 -18.304043 -5.021207 -34.758678 8.923168 64.977089 -41.795689 -13.791681 3.599359 17.464645 -7.888382 26.206055 2.743751 11.165343 -4.099174 46.142735 -20.517582 32.280407 33.210262 17.632269 3.711307 -12.853472 5.091641 29.421736 9.539930 16.581400 11.030353 0.819747 -4.097959 38.629841 37.678085 -1.831079 -5.359236 9.218292 -11.494484 -11.761695 2.562809 4.282192 -51.730034 47.717495 4.673669 10.523753 
0.000000 48.625053 0.000000 23.236494 -95.576805 -111.932838 0.000000 0.000000 0.000000 0.576527 -2.011617 -0.938537 -8.165868 1.080723 0.281719 2.057693 -1.688148 3.269767 -6.534276 -18.546370 -4.817785 -34.618786 8.319714 64.468040 -41.797672 -13.937544 3.610168 17.315912 -8.261830 25.906281 2.828062 10.766909 -3.864649 46.544632 -19.691032 32.337742 32.847824 17.691978 3.719163 -12.542915 4.868981 28.919476 9.608318 16.493479 10.972248 0.820087 -4.078158 38.581097 37.367508 -1.795103 -5.340657 9.214983 -11.588076 -11.895575 2.650414 4.319902 -51.224663 47.380795 4.667435 10.613405 
0.000000 48.625053 0.000000 23.811077 -95.643677 -112.534019 0.000000 0.000000 0.000000 0.732905 -2.079908 -0.720297 -8.185075 1.636505 0.908970 2.642474 -2.097979 3.851681 -6.185700 -19.106674 -4.611381 -34.073284 7.563540 63.864475 -41.636425 -13.996758 3.610473 16.426594 -7.955703 25.897013 3.206820 10.511006 -3.594954 46.778000 -19.340237 32.339767 32.964668 17.800667 3.713994 -12.140710 3.908684 28.344542 9.818433 16.331398 10.894794 0.514848 -4.041024 38.955227 37.195145 -1.753336 -5.224400 9.431916 -11.688487 -11.938804 2.268834 4.194268 -52.622570 47.976036 4.608819 10.338328 
0.000000 48.625053 0.000000 23.488174 -95.544800 -112.294472 0.000000 0.000000 0.000000 0.820895 -2.157982 -0.509774 -7.668999 2.189127 1.436607 2.877181 -2.050273 4.267920 -5.840301 -19.217672 -4.456069 -34.003784 7.081610 63.569008 -41.481556 -13.855619 3.598621 15.599163 -7.154877 27.032070 3.590692 10.790761 -3.447725 46.305313 -18.888504 32.380341 33.293224 17.630812 3.714804 -9.847979 1.964132 27.098934 9.774794 16.387335 10.908978 0.772892 -3.980379 38.906372 36.757980 -1.708212 -5.143857 9.186119 -11.609109 -11.857944 2.524839 4.123114 -52.263546 47.359924 4.550327 10.397849 
0.000000 48.625053 0.000000 23.515850 -95.514053 -112.354057 0.000000 0.000000 0.000000 1.026186 -2.255498 -0.499728 -7.162328 2.003575 2.343640 4.042731 -0.584082 4.724323 -5.669611 -19.922136 -4.230883 -33.266487 6.541729 63.221336 -41.413254 -13.871323 3.594723 14.301754 -6.632505 27.297634 3.412274 10.362025 -3.168673 46.640724 -17.739691 32.702362 33.175468 17.763197 3.723970 -9.929539 1.018773 27.513233 9.818518 16.429573 10.960319 0.602684 -3.992362 38.958477 36.768372 -1.702434 -5.134071 9.206655 -11.619576 -11.840289 2.535651 4.151879 -52.262146 47.501602 4.595525 10.437755 
0.000000 48.625053 0.000000 23.151583 -95.371765 -112.076927 0.000000 0.000000 0.000000 1.104439 -2.343315 -0.543571 -6.626236 1.841919 3.016303 6.278918 1.034304 5.045913 -5.648136 -19.697290 -4.103976 -33.864067 6.355727 62.743977 -41.170849 -14.073752 3.606888 13.742071 -5.292329 26.771879 3.274298 10.529135 -3.082435 46.097713 -17.097685 32.430588 33.585945 17.683632 3.715981 -8.644121 -0.185212 26.168182 9.771811 16.519897 10.990391 0.594534 -4.000906 38.949387 36.913822 -1.720486 -5.158114 9.071441 -11.591658 -11.850555 2.453992 4.155237 -53.497967 47.616310 4.495655 10.158019 
0.000000 48.625053 0.000000 22.464792 -95.271034 -111.388969 0.000000 0.000000 0.000000 1.368322 -2.333320 -0.573648 -5.010473 1.752236 2.856319 5.937158 0.916975 5.074491 -5.622669 -19.750517 -3.824118 -34.147335 5.854255 62.402714 -41.138988 -14.206673 3.617585 13.029339 -5.079090 27.108065 3.075908 10.705245 -2.820637 45.684631 -15.938137 32.691612 33.552692 17.723280 3.727076 -8.457105 -0.348695 25.708416 9.606923 16.511198 10.835871 0.732537 -3.902166 38.704506 36.801147 -1.669405 -5.039072 9.069483 -11.580129 -11.878840 2.353242 4.226010 -53.426388 47.561253 4.468699 10.172085 
0.000000 48.625053 0.000000 22.528778 -95.231224 -111.409630 0.000000 0.000000 0.000000 1.583333 -2.323332 -0.582124 -2.916651 1.409580 2.742243 5.595021 1.219021 4.935953 -5.623644 -19.997738 -3.566061 -34.148380 5.363683 61.887955 -41.282345 -14.826252 3.652289 13.136298 -5.472866 26.945469 2.985921 10.574106 -2.531890 45.617767 -15.226800 32.743843 33.373535 17.811497 3.729392 -8.431702 -0.435064 25.426149 9.372616 16.511358 10.747111 1.025222 -3.901953 38.254211 36.816795 -1.611425 -4.813557 9.060728 -11.619319 -11.943843 2.316797 4.185277 -54.161484 48.036606 4.470459 10.003616 
0.000000 48.625053 0.000000 22.177788 -95.102264 -111.004539 0.000000 0.000000 0.000000 1.866731 -2.293705 -0.621943 -1.378963 1.435014 2.841203 6.161796 0.917135 5.302696 -5.536277 -19.911150 -3.222124 -34.584835 4.740835 61.508915 -41.317036 -15.271280 3.684288 13.307119 -5.117960 26.685343 2.765748 10.593660 -2.225470 45.634014 -14.485699 32.480274 33.100468 17.704638 3.722851 -8.184890 -0.183441 25.332468 9.302489 16.568611 10.740800 0.938964 -3.870697 38.367413 37.041718 -1.617595 -4.872009 8.959137 -11.557246 -11.931303 2.353287 4.275225 -53.903648 47.549728 4.412783 10.015105 
0.000000 48.625053 0.000000 22.684669 -95.120834 -111.442009 0.000000 0.000000 0.000000 2.130687 -2.342131 -0.634315 1.015673 1.191575 2.776892 5.810150 0.965648 5.323987 -5.470599 -20.458847 -2.913440 -34.158070 4.112317 61.264309 -41.654934 -15.789480 3.718039 13.309072 -4.873049 26.402960 2.682756 10.707270 -1.887465 45.362946 -13.758871 32.948601 33.039734 17.908588 3.724811 -8.186356 -0.017146 24.864248 9.077447 16.537775 10.677923 1.310038 -3.909434 37.978840 37.089413 -1.527819 -4.552361 8.909317 -11.624694 -11.959618 2.505397 4.241146 -53.931572 47.857365 4.476017 10.069777 
0.000000 48.625053 0.000000 23.158056 -95.096222 -111.802803 0.000000 0.000000 0.000000 2.423951 -2.370926 -0.598700 3.047348 1.068506 2.895600 5.878527 0.955949 5.462322 -5.241731 -20.384787 -2.560029 -34.400249 3.230900 60.918930 -41.770317 -16.310633 3.752919 13.293680 -4.795825 27.038179 2.649030 10.798577 -1.571921 45.687450 -13.545446 32.496136 32.776520 17.748899 3.714773 -8.769489 0.364185 26.183222 9.164945 16.547047 10.756264 1.085145 -3.919854 38.249088 37.042065 -1.614177 -4.853310 8.836080 -11.503253 -11.749285 2.575275 4.024708 -53.697224 47.629162 4.476840 10.121863 
0.000000 48.625053 0.000000 23.514675 -95.194946 -111.896255 0.000000 0.000000 0.000000 2.775814 -2.370266 -0.662070 5.154483 0.732091 2.892740 6.044342 1.219486 5.550981 -5.242095 -20.363314 -2.101738 -34.635464 2.541659 60.801258 -41.932415 -16.677225 3.784515 13.240694 -4.877948 27.089685 2.437196 10.868140 -1.134009 45.790325 -12.996913 32.189346 32.761707 17.677736 3.705805 -8.058416 -0.174900 25.632027 9.232112 16.525660 10.748765 1.016394 -3.930375 38.195549 36.744953 -1.643392 -4.928508 9.205300 -11.480700 -11.729852 2.237077 4.000978 -53.722103 47.581417 4.464745 10.108341 
0.000000 48.625053 0.000000 23.386786 -95.221825 -111.592987 0.000000 0.000000 0.000000 3.147203 -2.359721 -0.686644 7.054821 0.400811 3.059701 6.855065 1.229896 5.831609 -5.236419 -20.851156 -1.666443 -34.216984 1.807181 60.436779 -42.286682 -17.407745 3.832884 13.347909 -4.459047 26.285040 2.331844 11.247427 -0.698034 45.614243 -12.356085 32.478855 32.735146 17.898857 3.721642 -8.703134 0.251243 24.985035 9.379281 16.546526 10.883331 0.812369 -3.949220 39.020611 37.004471 -1.697805 -5.080080 9.281743 -11.381979 -11.648256 2.197006 3.913953 -53.278332 47.102615 4.417393 10.119529 
0.000000 48.625053 0.000000 24.611494 -95.282204 -112.642151 0.000000 0.000000 0.000000 3.430816 -2.427288 -0.555913 9.039118 0.073348 3.007102 6.981885 1.474019 5.534461 -4.756453 -20.573660 -1.226894 -34.506317 0.647619 60.299145 -42.478424 -17.875916 3.866902 13.361591 -3.968522 27.505709 2.364707 11.174649 -0.308910 46.115753 -12.165002 32.057423 32.547009 17.697140 3.714779 -8.219648 0.186150 24.902304 9.322563 16.528959 10.915319 0.895610 -3.972777 38.995338 36.783848 -1.646868 -4.945942 9.354036 -11.347348 -11.505856 2.210027 3.774391 -53.055115 47.338081 4.499297 10.258585 
0.000000 48.625053 0.000000 23.846430 -95.272064 -111.931786 0.000000 0.000000 0.000000 3.812211 -2.494475 -0.713307 10.826871 0.218431 3.222560 7.226337 1.034857 6.322783 -4.542131 -20.326727 -0.723287 -35.127811 -0.075671 60.368942 -42.682678 -18.264427 3.895718 13.796597 -3.065819 26.520563 1.777828 10.903521 0.124513 46.520554 -10.491027 32.940765 32.142521 18.106995 3.733580 -8.678575 0.321430 24.888887 9.413171 16.581934 10.950279 0.811811 -3.969219 39.196232 36.919956 -1.658483 -5.025666 9.315844 -11.269474 -11.383191 2.173276 3.685026 -52.913128 47.355354 4.515359 10.274072 
0.000000 48.625053 0.000000 24.254385 -95.331528 -112.172699 0.000000 0.000000 0.000000 4.339988 -2.473365 -0.627350 12.234283 -0.332553 3.111372 8.027070 1.767489 5.870900 -4.228213 -20.274202 -0.063811 -35.131657 -1.387684 59.878643 -42.853703 -18.804836 3.932352 13.656424 -2.889897 26.927210 1.647249 10.921803 0.749871 46.921680 -9.683891 32.992603 31.904303 18.165438 3.730671 -9.492681 0.784569 24.829315 9.477182 16.527929 10.948103 0.690648 -3.982674 39.186192 36.536503 -1.666552 -5.037730 9.381458 -11.247567 -11.352729 2.188824 3.600149 -52.679295 47.107780 4.511829 10.329099 
0.000000 48.625053 0.000000 24.418173 -95.274132 -112.330482 0.000000 0.000000 0.000000 4.652881 -2.501505 -0.662741 15.120707 -0.705487 2.845441 7.851113 1.982251 5.725942 -4.453523 -20.951893 0.262617 -34.555195 -1.541606 59.568436 -42.934059 -19.215992 3.961931 13.858987 -2.708834 26.341833 1.776714 11.349038 1.116518 46.756561 -9.268721 33.134125 31.767729 18.311604 3.735002 -10.149284 1.365768 24.944357 9.344195 16.552004 10.900275 0.829743 -3.912342 39.166428 36.550106 -1.628297 -4.943045 9.339486 -11.205533 -11.335374 2.229924 3.627615 -52.568558 47.011131 4.495592 10.328350 
